<?xml version="1.0" standalone="no"?>
<!DOCTYPE svg PUBLIC "-//W3C//DTD SVG 20010904//EN"
 "http://www.w3.org/TR/2001/REC-SVG-20010904/DTD/svg10.dtd">
<svg version="1.0" xmlns="http://www.w3.org/2000/svg"
 width="1600.000000pt" height="1600.000000pt" viewBox="0 0 1600.000000 1600.000000"
 preserveAspectRatio="xMidYMid meet">

<g transform="translate(0.000000,1600.000000) scale(0.100000,-0.100000)"
fill="#000000" stroke="none">
<path d="M1975 9345 c-363 -50 -607 -226 -708 -510 -47 -135 -45 -182 10 -203
37 -14 427 -55 452 -47 26 8 43 38 65 110 15 48 29 71 76 117 74 73 162 103
272 96 136 -10 221 -78 253 -203 14 -55 22 -265 10 -265 -35 0 -398 -45 -485
-61 -407 -71 -648 -258 -732 -568 -29 -108 -29 -314 1 -424 58 -218 205 -366
421 -424 48 -13 102 -17 205 -17 162 0 262 19 370 68 74 34 206 130 264 190
19 20 38 36 42 36 4 0 32 -35 62 -77 30 -43 84 -106 121 -140 58 -55 72 -63
105 -63 33 0 50 10 122 73 304 260 297 253 279 303 -5 13 -35 60 -66 105 -32
45 -69 111 -83 148 l-25 66 -6 585 c-6 576 -6 586 -29 655 -34 104 -64 156
-127 224 -174 188 -511 276 -869 226z m433 -1417 c-5 -151 -9 -184 -32 -255
-72 -223 -242 -341 -420 -292 -52 14 -119 79 -145 140 -43 99 -37 248 14 349
41 80 137 154 250 190 57 19 189 38 269 39 l69 1 -5 -172z"/>
<path d="M7580 9354 c-14 -2 -59 -9 -100 -15 -106 -16 -221 -53 -325 -107
-104 -54 -227 -169 -284 -265 -42 -71 -91 -215 -91 -267 0 -67 16 -73 269 -99
l222 -24 24 23 c12 12 28 42 35 68 35 139 147 227 303 239 105 8 178 -15 238
-75 63 -63 79 -119 79 -273 l0 -118 -42 -5 c-24 -3 -108 -13 -188 -22 -356
-39 -537 -89 -696 -196 -138 -92 -234 -222 -286 -388 -20 -65 -23 -96 -23
-230 0 -135 3 -165 23 -230 99 -315 358 -463 740 -421 189 20 316 79 481 222
72 63 84 71 93 56 29 -52 134 -180 182 -220 60 -52 102 -61 146 -30 21 15 143
119 313 269 47 41 48 75 6 135 -85 123 -101 149 -121 204 -22 59 -23 71 -29
630 -7 622 -8 644 -67 769 -94 199 -305 327 -602 366 -72 9 -248 11 -300 4z
m370 -1412 c0 -231 -34 -347 -133 -458 -95 -106 -229 -142 -339 -91 -98 44
-148 139 -148 280 0 99 18 168 63 233 77 116 263 188 495 193 l62 1 0 -158z"/>
<path d="M4475 9326 c-171 -34 -307 -144 -389 -315 l-35 -72 -3 156 c-4 211
18 195 -280 195 l-229 0 -24 -25 -25 -24 0 -1100 c0 -785 3 -1107 11 -1124 19
-43 46 -47 288 -47 216 0 230 1 255 21 l26 20 0 667 c1 699 5 813 40 927 18
58 31 79 74 121 61 59 123 80 211 71 134 -14 203 -104 225 -295 6 -50 10 -386
10 -789 l0 -702 26 -20 c25 -20 39 -21 260 -21 232 0 233 0 261 24 l28 24 5
754 c5 694 7 757 24 808 23 70 64 129 113 162 56 39 86 48 164 48 141 0 211
-61 238 -205 7 -39 11 -311 11 -812 l0 -754 25 -24 24 -25 231 0 c249 0 284 6
295 53 3 12 4 429 3 927 -3 845 -5 909 -22 970 -62 216 -220 361 -446 406
-198 39 -419 -20 -559 -150 -39 -36 -129 -168 -137 -203 -4 -12 -9 -23 -13
-23 -3 0 -24 35 -46 77 -52 101 -168 222 -247 258 -112 51 -262 67 -393 41z"/>
<path d="M11643 9326 c-401 -77 -667 -380 -760 -867 -26 -137 -25 -504 1 -644
51 -273 155 -487 316 -646 163 -162 360 -239 612 -239 244 0 444 80 614 245
208 203 325 489 349 855 12 177 -23 457 -77 620 -113 346 -346 581 -653 660
-104 27 -302 35 -402 16z m274 -447 c162 -50 233 -282 233 -763 0 -360 -39
-538 -141 -650 -58 -64 -111 -88 -194 -89 -242 -2 -351 292 -332 893 9 281 48
439 132 538 65 77 187 106 302 71z"/>
<path d="M14081 9325 c-173 -39 -288 -135 -384 -320 l-56 -110 -1 178 c0 163
-2 179 -20 197 -19 19 -33 20 -250 20 l-231 0 -24 -25 -25 -24 0 -1100 c0
-796 3 -1107 11 -1125 20 -43 49 -47 297 -44 206 3 233 5 249 21 17 17 18 64
24 720 6 750 6 750 59 889 26 70 95 149 156 178 37 18 58 21 118 18 119 -6
172 -52 218 -188 22 -64 23 -74 28 -832 5 -719 6 -768 23 -785 16 -16 43 -18
244 -21 125 -2 238 0 250 3 13 3 32 14 43 25 20 20 20 37 20 819 0 799 -4 931
-37 1076 -46 210 -182 359 -383 419 -77 24 -249 29 -329 11z"/>
<path d="M9089 9281 c-23 -19 -24 -24 -27 -192 -4 -191 -1 -209 30 -239 21
-19 34 -20 395 -20 205 0 373 -2 373 -5 0 -5 -95 -141 -610 -880 -218 -312
-238 -343 -251 -383 -7 -21 -14 -129 -16 -248 -7 -308 1 -318 194 -236 244
104 362 127 648 127 205 -1 228 -3 339 -29 132 -31 243 -69 335 -115 72 -37
100 -39 129 -8 21 22 22 32 22 225 0 129 -4 210 -11 226 -32 69 -277 169 -509
207 -41 6 -134 15 -207 18 l-132 6 390 555 c214 305 398 573 409 596 18 35 20
60 20 206 l0 167 -26 20 c-26 21 -33 21 -749 21 -696 0 -724 -1 -746 -19z"/>
</g>
</svg>
